<?xml version="1.0" encoding="UTF-8"?>
<svg width="31" height="31" viewBox="0 0 31 31" xmlns="http://www.w3.org/2000/svg">
	<path d="m15.279 14.933c2.0515 0 3.8277-0.7358 5.2794-2.1875 1.4512-1.4514 2.1873-3.2274 2.1873-5.2791 0-2.051-0.7358-3.8272-2.1875-5.2792-1.4517-1.4512-3.2279-2.187-5.2792-2.187-2.0517 0-3.8277 0.73578-5.2792 2.1872-1.4515 1.4515-2.1875 3.2277-2.1875 5.2789 0 2.0517 0.73602 3.8279 2.1875 5.2794 1.452 1.4512 3.2282 2.1872 5.2792 2.1872zm-3.9944-11.461c1.1137-1.1137 2.4202-1.6551 3.9944-1.6551 1.574 0 2.8807 0.54137 3.9947 1.6551 1.1137 1.114 1.6553 2.4207 1.6553 3.9944 0 1.5742-0.5416 2.8807-1.6553 3.9946-1.114 1.114-2.4207 1.6554-3.9947 1.6554-1.5737 0-2.8802-0.5416-3.9944-1.6554-1.114-1.1137-1.6556-2.4204-1.6556-3.9946 0-1.5737 0.54162-2.8805 1.6556-3.9944z" fill="#F1E8E8" />
	<path d="m28.344 23.838c-0.0418-0.6041-0.1265-1.263-0.2511-1.9588-0.1259-0.701-0.2879-1.3637-0.4818-1.9695-0.2006-0.626-0.4728-1.2442-0.8098-1.8367-0.3493-0.6149-0.7599-1.1504-1.2207-1.591-0.4817-0.461-1.0716-0.8316-1.7537-1.1019-0.6797-0.2689-1.433-0.4052-2.2388-0.4052-0.3165 0-0.6225 0.1299-1.2135 0.5147-0.3638 0.2372-0.7893 0.5116-1.2642 0.815-0.4061 0.2588-0.9562 0.5012-1.6357 0.7207-0.6629 0.2145-1.3361 0.3233-2.0007 0.3233-0.6641 0-1.3372-0.1088-2.0006-0.3233-0.6788-0.2193-1.2291-0.4617-1.6345-0.7205-0.4705-0.3006-0.8962-0.5749-1.2654-0.8154-0.59053-0.3848-0.89658-0.5147-1.213-0.5147-0.80603 0-1.5591 0.1365-2.2386 0.4056-0.68163 0.2699-1.2717 0.6405-1.754 1.1019-0.46072 0.4409-0.8713 0.9761-1.2204 1.5908-0.33655 0.5925-0.60901 1.2105-0.80957 1.837-0.19371 0.6057-0.35572 1.2682-0.48154 1.9692-0.12488 0.6948-0.20931 1.354-0.25118 1.9595-0.04115 0.592-0.06196 1.2081-0.06196 1.8306 0 1.6182 0.51441 2.9282 1.5288 3.8943 1.0019 0.9534 2.3273 1.4368 3.9396 1.4368h14.927c1.6119 0 2.9373-0.4834 3.9394-1.4368 1.0146-0.9654 1.529-2.2759 1.529-3.8946-2e-4 -0.6246-0.0213-1.2407-0.0627-1.831zm-2.7189 4.4095c-0.662 0.63-1.5409 0.9363-2.687 0.9363h-14.926c-1.1464 0-2.0252-0.3063-2.687-0.9361-0.64922-0.618-0.96473-1.4616-0.96473-2.5784 0-0.5809 0.01916-1.1545 0.05747-1.705 0.03737-0.5402 0.11377-1.1336 0.22705-1.7642 0.11187-0.6227 0.25425-1.2071 0.4236-1.7362 0.16248-0.5073 0.38409-1.0097 0.65892-1.4936 0.26229-0.4612 0.56408-0.8569 0.89708-1.1757 0.31149-0.2982 0.7041-0.5423 1.1667-0.7253 0.42785-0.1694 0.90868-0.2621 1.4307-0.2761 0.06362 0.0339 0.17691 0.0984 0.36044 0.2181 0.37345 0.2434 0.80386 0.521 1.2798 0.825 0.5364 0.342 1.2275 0.6508 2.0532 0.9174 0.8441 0.2729 1.705 0.4115 2.5595 0.4115s1.7156-0.1386 2.5593-0.4113c0.8263-0.267 1.5172-0.5756 2.0543-0.9181 0.487-0.3113 0.9054-0.5809 1.2788-0.8245 0.1836-0.1194 0.2968-0.1842 0.3605-0.2181 0.5222 0.014 1.003 0.1067 1.4311 0.2761 0.4624 0.183 0.855 0.4273 1.1665 0.7253 0.333 0.3186 0.6348 0.7143 0.8971 1.176 0.275 0.4836 0.4969 0.9862 0.6591 1.4931 0.1696 0.5297 0.3122 1.1139 0.4238 1.7362 0.1131 0.6317 0.1897 1.2253 0.2271 1.7646v5e-4c0.0385 0.5484 0.0579 1.1217 0.0582 1.7043-3e-4 1.117-0.3158 1.9604-0.965 2.5782z" fill="#F1E8E8" />
</svg>