<svg width="31" height="31" xmlns="http://www.w3.org/2000/svg" viewBox="0 0 326.845 326.845" style="enable-background:new 0 0 326.845 326.845" xml:space="preserve">
	<path fill="#f1e8e8" d="M264.693 326.845h-38.079a8 8 0 0 1-8-8v-30.464H108.231v30.464a8 8 0 0 1-8 8H62.152a8 8 0 0 1-8-8v-6.939H24.074a8 8 0 0 1-8-8V224.03a8 8 0 0 1 8-8h30.077v-6.938a8 8 0 0 1 8-8h38.079a8 8 0 0 1 8 8v30.464h110.384v-30.464a8 8 0 0 1 8-8h38.079a8 8 0 0 1 8 8v6.938h30.077a8 8 0 0 1 8 8v79.875a8 8 0 0 1-8 8h-30.077v6.939a8 8 0 0 1-8 8.001zm-30.078-16h22.079v-93.753h-22.079v93.753zm-164.463 0h22.079v-93.753H70.152v93.753zm202.541-14.94h22.077V232.03h-22.077v63.875zm-240.619 0h22.077V232.03H32.074v63.875zm76.157-23.524h110.384v-16.825H108.231v16.825zm37.212-49.005a8.001 8.001 0 0 1-6.962-11.93c14.273-25.312 33.543-46.712 56.214-63.181a227.875 227.875 0 0 0-33.681-37.227c-31.019 33.403-73.355 55.896-120.395 61.599a125.357 125.357 0 0 0 3.784 12.468 8 8 0 0 1-4.806 10.242 7.998 7.998 0 0 1-10.242-4.807c-5.571-15.424-8.396-31.599-8.396-48.077C20.959 63.908 84.868 0 163.423 0c78.554 0 142.462 63.908 142.462 142.463a141.47 141.47 0 0 1-6.255 41.68 8 8 0 1 1-15.291-4.709 125.506 125.506 0 0 0 5.546-36.971c0-4.869-.276-9.673-.814-14.4a179.518 179.518 0 0 0-72.172 24.662 243.305 243.305 0 0 1 12.873 23.202 8 8 0 1 1-14.395 6.982 233.464 233.464 0 0 0-11.761-21.341c-20.629 15.091-38.175 34.642-51.196 57.736a8.002 8.002 0 0 1-6.977 4.072zM66.601 61.193c-18.492 21.994-29.642 50.354-29.642 81.27 0 4.834.274 9.639.819 14.399 43.257-5.019 82.233-25.484 110.873-56.012-24.096-18.459-51.891-32.036-82.05-39.657zm104.728 37.805c13.625 12.048 25.936 25.664 36.611 40.442a195.507 195.507 0 0 1 78.307-27.155C276.26 71.65 246.58 38.67 207.948 24.091c-6.823 27.846-19.515 53.242-36.619 74.907zM79.321 48.096c28.682 8.458 55.914 22.357 79.681 40.709 15.771-20.065 27.435-43.606 33.62-69.402A126.383 126.383 0 0 0 163.423 16c-32.261 0-61.737 12.14-84.102 32.096z" />
</svg>